<mxfile host="app.diagrams.net" modified="2023-12-12T11:46:09.384Z" agent="Mozilla/5.0 (Macintosh; Intel Mac OS X 10_15_7) AppleWebKit/537.36 (KHTML, like Gecko) Chrome/120.0.0.0 Safari/537.36" version="22.1.7" etag="kvgkr47-5YyNgUhuOAHz" type="github">
  <diagram name="ページ1" id="7UAf7tjH2qOIvpjXix7I">
    <mxGraphModel>
      <root>
        <mxCell id="0" />
        <mxCell id="1" parent="0" />
      </root>
    </mxGraphModel>
  </diagram>
</mxfile>
